# xmcd
#
# Track frame offsets:
#	150
#	13096
#	23244
#	34926
#	47930
#	60197
#	72403
#	82766
#	92867
#	103574
#	116539
#	129433
#	142941
#	156521
#	171174
#	185160
#	196494
#	210708
#	222443
#	235044
#	248125
#	261051
#	274202
#	285929
#	296760
#
# Disc length: 4103 seconds
#
# Revision: 0
# Processed by: cddbd v1.5.2PL0 Copyright (c) Steve Scherf et al.
# Submitted via: dBpowerAMP V4.0
#
DISCID=72100519
DTITLE=Eddy Arnold - Essential Gold Bouquet Of Roses CD 2
DYEAR=2006
DGENRE=Country
TTITLE0=Anytime
TTITLE1=There's Been A Change In Me
TTITLE2=Just Call Me Lonesome
TTITLE3=Take Me In Your Arms And Hold Me
TTITLE4=The Cattle Call
TTITLE5=Red River Valley
TTITLE6=One Kiss Too Many
TTITLE7=Somebody's Been Beating My Time
TTITLE8=Mama, Come Get Your Baby Boy
TTITLE9=Then I Turned And Walked Slowly Away
TTITLE10=Seven Years With The Wrong Woman
TTITLE11=What A Fool I Was
TTITLE12=M-O-T-H-E-R (A Word That Means The World To Me)
TTITLE13=Will The Circle Be Unbroken
TTITLE14=Across The Wide Missouri
TTITLE15=That Do Make It Nice
TTITLE16=That's How Much I Love You
TTITLE17=Easy On The Eyes
TTITLE18=What Is Life Without Love
TTITLE19=To My Sorrow
TTITLE20=A Prison Without Walls
TTITLE21=You Must Walk The Line
TTITLE22=There's No Wings On My Angel
TTITLE23=Something Old Something New
TTITLE24=Home On The Range
EXTD=
EXTT0=
EXTT1=
EXTT2=
EXTT3=
EXTT4=
EXTT5=
EXTT6=
EXTT7=
EXTT8=
EXTT9=
EXTT10=
EXTT11=
EXTT12=
EXTT13=
EXTT14=
EXTT15=
EXTT16=
EXTT17=
EXTT18=
EXTT19=
EXTT20=
EXTT21=
EXTT22=
EXTT23=
EXTT24=
PLAYORDER=
